<?xml version="1.0" encoding="UTF-8" standalone="no"?>
<!DOCTYPE svg PUBLIC "-//W3C//DTD SVG 1.1//EN"
 "http://www.w3.org/Graphics/SVG/1.1/DTD/svg11.dtd">
<!-- Generated by graphviz version 13.0.1 (20250615.1724)
 -->
<!-- Title: GuiManager::showMainForm Pages: 1 -->
<svg width="342pt" height="78pt"
 viewBox="0.00 0.00 342.00 78.00" xmlns="http://www.w3.org/2000/svg" xmlns:xlink="http://www.w3.org/1999/xlink">
<g id="graph0" class="graph" transform="scale(1 1) rotate(0) translate(4 74)">
<title>GuiManager::showMainForm</title>
<!-- Node1 -->
<g id="Node000001" class="node">
<title>Node1</title>
<g id="a_Node000001"><a xlink:title="نمایش فرم‌های اصلی برنامه و مخفی کردن فرم ورود">
<polygon fill="#999999" stroke="#666666" points="141.25,-42 0,-42 0,-22 141.25,-22 141.25,-42"/>
<text xml:space="preserve" text-anchor="middle" x="70.62" y="-28.5" font-family="Helvetica,sans-Serif" font-size="10.00">GuiManager::showMainForm</text>
</a>
</g>
</g>
<!-- Node2 -->
<g id="Node000002" class="node">
<title>Node2</title>
<g id="a_Node000002"><a xlink:href="class_basic_functions.html#ac1ceefd9302841384f17a93613acabb3" target="_top" xlink:title="افزودن رنگ‌ها">
<polygon fill="white" stroke="#666666" points="320.38,-70 190.38,-70 190.38,-38 320.38,-38 320.38,-70"/>
<text xml:space="preserve" text-anchor="start" x="198.38" y="-56.5" font-family="Helvetica,sans-Serif" font-size="10.00">BasicFunctions::AddColor</text>
<text xml:space="preserve" text-anchor="middle" x="255.38" y="-44.5" font-family="Helvetica,sans-Serif" font-size="10.00">ItemToQcomBox</text>
</a>
</g>
</g>
<!-- Node1&#45;&gt;Node2 -->
<g id="edge1_Node000001_Node000002" class="edge">
<title>Node1&#45;&gt;Node2</title>
<g id="a_edge1_Node000001_Node000002"><a xlink:title=" ">
<path fill="none" stroke="#63b8ff" d="M141.5,-40.41C153.69,-41.88 166.42,-43.41 178.75,-44.9"/>
<polygon fill="#63b8ff" stroke="#63b8ff" points="178.09,-48.34 188.44,-46.06 178.93,-41.39 178.09,-48.34"/>
</a>
</g>
</g>
<!-- Node3 -->
<g id="Node000003" class="node">
<title>Node3</title>
<g id="a_Node000003"><a xlink:href="class_basic_functions.html#a42e706dc7510a66dfc3511e4023552d4" target="_top" xlink:title="مقداردهی به نوار لغزنده افقی">
<polygon fill="white" stroke="#666666" points="333.5,-20 177.25,-20 177.25,0 333.5,0 333.5,-20"/>
<text xml:space="preserve" text-anchor="middle" x="255.38" y="-6.5" font-family="Helvetica,sans-Serif" font-size="10.00">BasicFunctions::SetGuiBlineBar</text>
</a>
</g>
</g>
<!-- Node1&#45;&gt;Node3 -->
<g id="edge2_Node000001_Node000003" class="edge">
<title>Node1&#45;&gt;Node3</title>
<g id="a_edge2_Node000001_Node000003"><a xlink:title=" ">
<path fill="none" stroke="#63b8ff" d="M141.5,-23.59C149.37,-22.64 157.48,-21.67 165.55,-20.69"/>
<polygon fill="#63b8ff" stroke="#63b8ff" points="165.91,-24.17 175.42,-19.5 165.07,-17.23 165.91,-24.17"/>
</a>
</g>
</g>
</g>
</svg>
