<?xml version="1.0" encoding="UTF-8" standalone="no"?>
<!DOCTYPE svg PUBLIC "-//W3C//DTD SVG 1.1//EN"
 "http://www.w3.org/Graphics/SVG/1.1/DTD/svg11.dtd">
<!-- Generated by graphviz version 13.0.1 (20250615.1724)
 -->
<!-- Title: ChartViewHelper::appendMaskedSeriesByUpperBound Pages: 1 -->
<svg width="538pt" height="90pt"
 viewBox="0.00 0.00 538.00 90.00" xmlns="http://www.w3.org/2000/svg" xmlns:xlink="http://www.w3.org/1999/xlink">
<g id="graph0" class="graph" transform="scale(1 1) rotate(0) translate(4 86)">
<title>ChartViewHelper::appendMaskedSeriesByUpperBound</title>
<!-- Node1 -->
<g id="Node000001" class="node">
<title>Node1</title>
<g id="a_Node000001"><a xlink:title="ساخت سری‌های کران بالا و کران پایین برای حساب کردن مساحت فیلترشده">
<polygon fill="#999999" stroke="#666666" points="530.25,-57 368,-57 368,-25 530.25,-25 530.25,-57"/>
<text xml:space="preserve" text-anchor="start" x="376" y="-43.5" font-family="Helvetica,sans-Serif" font-size="10.00">ChartViewHelper::appendMasked</text>
<text xml:space="preserve" text-anchor="middle" x="449.12" y="-31.5" font-family="Helvetica,sans-Serif" font-size="10.00">SeriesByUpperBound</text>
</a>
</g>
</g>
<!-- Node2 -->
<g id="Node000002" class="node">
<title>Node2</title>
<g id="a_Node000002"><a xlink:href="class_chart_view_helper.html#afe8dc70dc392995d62b491a32835cb9e" target="_top" xlink:title="فیلتر بالا گذر برای حالت پیوسته">
<polygon fill="white" stroke="#666666" points="322.62,-82 181.38,-82 181.38,-50 322.62,-50 322.62,-82"/>
<text xml:space="preserve" text-anchor="start" x="189.38" y="-68.5" font-family="Helvetica,sans-Serif" font-size="10.00">ChartViewHelper::_plotChart</text>
<text xml:space="preserve" text-anchor="middle" x="252" y="-56.5" font-family="Helvetica,sans-Serif" font-size="10.00">WithMaxFilter_LineChar</text>
</a>
</g>
</g>
<!-- Node1&#45;&gt;Node2 -->
<g id="edge1_Node000001_Node000002" class="edge">
<title>Node1&#45;&gt;Node2</title>
<g id="a_edge1_Node000001_Node000002"><a xlink:title=" ">
<path fill="none" stroke="#63b8ff" d="M356.45,-52.75C345.21,-54.19 333.87,-55.64 323.02,-57.03"/>
<polygon fill="#63b8ff" stroke="#63b8ff" points="356.66,-56.25 366.13,-51.51 355.77,-49.3 356.66,-56.25"/>
</a>
</g>
</g>
<!-- Node4 -->
<g id="Node000004" class="node">
<title>Node4</title>
<g id="a_Node000004"><a xlink:href="class_chart_view_helper.html#a15fb9c1de16ba306ee4319aa1d69bfaf" target="_top" xlink:title="فیلتر بالا گذر و پایین گذر برای حالت پیوسته">
<polygon fill="white" stroke="#666666" points="332,-32 172,-32 172,0 332,0 332,-32"/>
<text xml:space="preserve" text-anchor="start" x="180" y="-18.5" font-family="Helvetica,sans-Serif" font-size="10.00">ChartViewHelper::_plotChart</text>
<text xml:space="preserve" text-anchor="middle" x="252" y="-6.5" font-family="Helvetica,sans-Serif" font-size="10.00">WithMin_and_MaxFilte_LineChar</text>
</a>
</g>
</g>
<!-- Node1&#45;&gt;Node4 -->
<g id="edge3_Node000001_Node000004" class="edge">
<title>Node1&#45;&gt;Node4</title>
<g id="a_edge3_Node000001_Node000004"><a xlink:title=" ">
<path fill="none" stroke="#63b8ff" d="M356.36,-29.24C348.34,-28.21 340.27,-27.18 332.36,-26.17"/>
<polygon fill="#63b8ff" stroke="#63b8ff" points="355.77,-32.7 366.13,-30.49 356.66,-25.75 355.77,-32.7"/>
</a>
</g>
</g>
<!-- Node3 -->
<g id="Node000003" class="node">
<title>Node3</title>
<g id="a_Node000003"><a xlink:href="class_chart_view_helper.html#a7de649321e8d724b27a635423ea017b6" target="_top" xlink:title="فیلتربالا گذر برای داه‌ها">
<polygon fill="white" stroke="#666666" points="136,-82 0,-82 0,-50 136,-50 136,-82"/>
<text xml:space="preserve" text-anchor="start" x="8" y="-68.5" font-family="Helvetica,sans-Serif" font-size="10.00">ChartViewHelper::plotChart</text>
<text xml:space="preserve" text-anchor="middle" x="68" y="-56.5" font-family="Helvetica,sans-Serif" font-size="10.00">WithMaxFilter</text>
</a>
</g>
</g>
<!-- Node2&#45;&gt;Node3 -->
<g id="edge2_Node000002_Node000003" class="edge">
<title>Node2&#45;&gt;Node3</title>
<g id="a_edge2_Node000002_Node000003"><a xlink:title=" ">
<path fill="none" stroke="#63b8ff" d="M169.46,-66C158.4,-66 147.15,-66 136.38,-66"/>
<polygon fill="#63b8ff" stroke="#63b8ff" points="169.38,-69.5 179.38,-66 169.38,-62.5 169.38,-69.5"/>
</a>
</g>
</g>
<!-- Node5 -->
<g id="Node000005" class="node">
<title>Node5</title>
<g id="a_Node000005"><a xlink:href="class_chart_view_helper.html#abddc2d2e850ec4bf222a1fe9717ce112" target="_top" xlink:title="هم‌زمان فیلتر پایین‌گذر و بالاگذر">
<polygon fill="white" stroke="#666666" points="136,-32 0,-32 0,0 136,0 136,-32"/>
<text xml:space="preserve" text-anchor="start" x="8" y="-18.5" font-family="Helvetica,sans-Serif" font-size="10.00">ChartViewHelper::plotChart</text>
<text xml:space="preserve" text-anchor="middle" x="68" y="-6.5" font-family="Helvetica,sans-Serif" font-size="10.00">WithMin_and_MaxFilter</text>
</a>
</g>
</g>
<!-- Node4&#45;&gt;Node5 -->
<g id="edge4_Node000004_Node000005" class="edge">
<title>Node4&#45;&gt;Node5</title>
<g id="a_edge4_Node000004_Node000005"><a xlink:title=" ">
<path fill="none" stroke="#63b8ff" d="M160.32,-16C152.26,-16 144.19,-16 136.36,-16"/>
<polygon fill="#63b8ff" stroke="#63b8ff" points="160.19,-19.5 170.19,-16 160.19,-12.5 160.19,-19.5"/>
</a>
</g>
</g>
</g>
</svg>
