<?xml version="1.0" encoding="UTF-8" standalone="no"?>
<!DOCTYPE svg PUBLIC "-//W3C//DTD SVG 1.1//EN"
 "http://www.w3.org/Graphics/SVG/1.1/DTD/svg11.dtd">
<!-- Generated by graphviz version 13.0.1 (20250615.1724)
 -->
<!-- Title: loginhandler Pages: 1 -->
<svg width="111pt" height="176pt"
 viewBox="0.00 0.00 111.00 176.00" xmlns="http://www.w3.org/2000/svg" xmlns:xlink="http://www.w3.org/1999/xlink">
<g id="graph0" class="graph" transform="scale(1 1) rotate(0) translate(4 172)">
<title>loginhandler</title>
<!-- Node1 -->
<g id="Node000001" class="node">
<title>Node1</title>
<g id="a_Node000001"><a xlink:title="کلاس بررسی و مدیریت ورود کاربران">
<polygon fill="#999999" stroke="#666666" points="80.5,-20 12.75,-20 12.75,0 80.5,0 80.5,-20"/>
<text xml:space="preserve" text-anchor="middle" x="46.62" y="-6.5" font-family="Helvetica,sans-Serif" font-size="10.00">loginhandler</text>
</a>
</g>
</g>
<!-- Node2 -->
<g id="Node000002" class="node">
<title>Node2</title>
<g id="a_Node000002"><a xlink:href="class_client_class_tcp.html" target="_top" xlink:title="کلاس مدیریت اتصال در سمت کلاینت">
<polygon fill="white" stroke="#666666" points="88,-94 5.25,-94 5.25,-74 88,-74 88,-94"/>
<text xml:space="preserve" text-anchor="middle" x="46.62" y="-80.5" font-family="Helvetica,sans-Serif" font-size="10.00">ClientClassTcp</text>
</a>
</g>
</g>
<!-- Node2&#45;&gt;Node1 -->
<g id="edge1_Node000001_Node000002" class="edge">
<title>Node2&#45;&gt;Node1</title>
<g id="a_edge1_Node000001_Node000002"><a xlink:title=" ">
<path fill="none" stroke="#9a32cd" stroke-dasharray="5,2" d="M46.62,-62.18C46.62,-48.29 46.62,-30.71 46.62,-20.19"/>
<polygon fill="#9a32cd" stroke="#9a32cd" points="43.13,-62.07 46.63,-72.07 50.13,-62.07 43.13,-62.07"/>
</a>
</g>
<text xml:space="preserve" text-anchor="start" x="49.62" y="-43.5" font-family="Helvetica,sans-Serif" font-size="10.00" fill="grey">curentclient</text>
</g>
<!-- Node3 -->
<g id="Node000003" class="node">
<title>Node3</title>
<g id="a_Node000003"><a xlink:href="classgenerate_message.html" target="_top" xlink:title="کلاس ساخت پیام برای ارتباط با سرور">
<polygon fill="white" stroke="#666666" points="93.25,-168 0,-168 0,-148 93.25,-148 93.25,-168"/>
<text xml:space="preserve" text-anchor="middle" x="46.62" y="-154.5" font-family="Helvetica,sans-Serif" font-size="10.00">generateMessage</text>
</a>
</g>
</g>
<!-- Node3&#45;&gt;Node2 -->
<g id="edge2_Node000002_Node000003" class="edge">
<title>Node3&#45;&gt;Node2</title>
<g id="a_edge2_Node000002_Node000003"><a xlink:title=" ">
<path fill="none" stroke="#9a32cd" stroke-dasharray="5,2" d="M46.62,-136.18C46.62,-122.29 46.62,-104.71 46.62,-94.19"/>
<polygon fill="#9a32cd" stroke="#9a32cd" points="43.13,-136.07 46.63,-146.07 50.13,-136.07 43.13,-136.07"/>
</a>
</g>
<text xml:space="preserve" text-anchor="start" x="49.62" y="-117.5" font-family="Helvetica,sans-Serif" font-size="10.00" fill="grey">_generater</text>
</g>
</g>
</svg>
