<?xml version="1.0" encoding="UTF-8" standalone="no"?>
<!DOCTYPE svg PUBLIC "-//W3C//DTD SVG 1.1//EN"
 "http://www.w3.org/Graphics/SVG/1.1/DTD/svg11.dtd">
<!-- Generated by graphviz version 13.0.1 (20250615.1724)
 -->
<!-- Title: ChartViewHelper::plotChartWithMaxFilter Pages: 1 -->
<svg width="523pt" height="140pt"
 viewBox="0.00 0.00 523.00 140.00" xmlns="http://www.w3.org/2000/svg" xmlns:xlink="http://www.w3.org/1999/xlink">
<g id="graph0" class="graph" transform="scale(1 1) rotate(0) translate(4 136)">
<title>ChartViewHelper::plotChartWithMaxFilter</title>
<!-- Node1 -->
<g id="Node000001" class="node">
<title>Node1</title>
<g id="a_Node000001"><a xlink:title="فیلتربالا گذر برای داه‌ها">
<polygon fill="#999999" stroke="#666666" points="136,-82 0,-82 0,-50 136,-50 136,-82"/>
<text xml:space="preserve" text-anchor="start" x="8" y="-68.5" font-family="Helvetica,sans-Serif" font-size="10.00">ChartViewHelper::plotChart</text>
<text xml:space="preserve" text-anchor="middle" x="68" y="-56.5" font-family="Helvetica,sans-Serif" font-size="10.00">WithMaxFilter</text>
</a>
</g>
</g>
<!-- Node2 -->
<g id="Node000002" class="node">
<title>Node2</title>
<g id="a_Node000002"><a xlink:href="class_chart_view_helper.html#acdeff16360860824960091b1b1f38bac" target="_top" xlink:title="فیلتر بالا گذر برای حالت گسسته">
<polygon fill="white" stroke="#666666" points="314.75,-132 173.5,-132 173.5,-100 314.75,-100 314.75,-132"/>
<text xml:space="preserve" text-anchor="start" x="181.5" y="-118.5" font-family="Helvetica,sans-Serif" font-size="10.00">ChartViewHelper::_plotChart</text>
<text xml:space="preserve" text-anchor="middle" x="244.12" y="-106.5" font-family="Helvetica,sans-Serif" font-size="10.00">WithMaxFilter_BarChar</text>
</a>
</g>
</g>
<!-- Node1&#45;&gt;Node2 -->
<g id="edge1_Node000001_Node000002" class="edge">
<title>Node1&#45;&gt;Node2</title>
<g id="a_edge1_Node000001_Node000002"><a xlink:title=" ">
<path fill="none" stroke="#63b8ff" d="M126.02,-82.37C141.57,-86.84 158.58,-91.72 174.7,-96.35"/>
<polygon fill="#63b8ff" stroke="#63b8ff" points="173.65,-99.69 184.23,-99.09 175.58,-92.96 173.65,-99.69"/>
</a>
</g>
</g>
<!-- Node3 -->
<g id="Node000003" class="node">
<title>Node3</title>
<g id="a_Node000003"><a xlink:href="class_chart_view_helper.html#afe8dc70dc392995d62b491a32835cb9e" target="_top" xlink:title="فیلتر بالا گذر برای حالت پیوسته">
<polygon fill="white" stroke="#666666" points="314.75,-82 173.5,-82 173.5,-50 314.75,-50 314.75,-82"/>
<text xml:space="preserve" text-anchor="start" x="181.5" y="-68.5" font-family="Helvetica,sans-Serif" font-size="10.00">ChartViewHelper::_plotChart</text>
<text xml:space="preserve" text-anchor="middle" x="244.12" y="-56.5" font-family="Helvetica,sans-Serif" font-size="10.00">WithMaxFilter_LineChar</text>
</a>
</g>
</g>
<!-- Node1&#45;&gt;Node3 -->
<g id="edge2_Node000001_Node000003" class="edge">
<title>Node1&#45;&gt;Node3</title>
<g id="a_edge2_Node000001_Node000003"><a xlink:title=" ">
<path fill="none" stroke="#63b8ff" d="M136.32,-66C144.61,-66 153.15,-66 161.63,-66"/>
<polygon fill="#63b8ff" stroke="#63b8ff" points="161.59,-69.5 171.59,-66 161.59,-62.5 161.59,-69.5"/>
</a>
</g>
</g>
<!-- Node6 -->
<g id="Node000006" class="node">
<title>Node6</title>
<g id="a_Node000006"><a xlink:href="class_chart_view_helper.html#a6dc5562d8e7d51aa481f4b7543c8abc1" target="_top" xlink:title="تنظیم ظاهر و ویژگی‌های پایه نمودار">
<polygon fill="white" stroke="#666666" points="316.25,-32 172,-32 172,0 316.25,0 316.25,-32"/>
<text xml:space="preserve" text-anchor="start" x="180" y="-18.5" font-family="Helvetica,sans-Serif" font-size="10.00">ChartViewHelper::setupChart</text>
<text xml:space="preserve" text-anchor="middle" x="244.12" y="-6.5" font-family="Helvetica,sans-Serif" font-size="10.00">Appearance</text>
</a>
</g>
</g>
<!-- Node1&#45;&gt;Node6 -->
<g id="edge5_Node000001_Node000006" class="edge">
<title>Node1&#45;&gt;Node6</title>
<g id="a_edge5_Node000001_Node000006"><a xlink:title=" ">
<path fill="none" stroke="#63b8ff" d="M126.02,-49.63C141.57,-45.16 158.58,-40.28 174.7,-35.65"/>
<polygon fill="#63b8ff" stroke="#63b8ff" points="175.58,-39.04 184.23,-32.91 173.65,-32.31 175.58,-39.04"/>
</a>
</g>
</g>
<!-- Node4 -->
<g id="Node000004" class="node">
<title>Node4</title>
<g id="a_Node000004"><a xlink:href="class_chart_view_helper.html#a44ba1265fed2d71ca4e61c3b4f56f655" target="_top" xlink:title="ساخت سری‌های کران بالا و کران پایین برای حساب کردن مساحت فیلترشده">
<polygon fill="white" stroke="#666666" points="514.5,-104 352.25,-104 352.25,-72 514.5,-72 514.5,-104"/>
<text xml:space="preserve" text-anchor="start" x="360.25" y="-90.5" font-family="Helvetica,sans-Serif" font-size="10.00">ChartViewHelper::appendMasked</text>
<text xml:space="preserve" text-anchor="middle" x="433.38" y="-78.5" font-family="Helvetica,sans-Serif" font-size="10.00">SeriesByUpperBound</text>
</a>
</g>
</g>
<!-- Node3&#45;&gt;Node4 -->
<g id="edge3_Node000003_Node000004" class="edge">
<title>Node3&#45;&gt;Node4</title>
<g id="a_edge3_Node000003_Node000004"><a xlink:title=" ">
<path fill="none" stroke="#63b8ff" d="M315.12,-74.22C323.42,-75.2 331.99,-76.21 340.55,-77.21"/>
<polygon fill="#63b8ff" stroke="#63b8ff" points="339.91,-80.66 350.25,-78.35 340.73,-73.71 339.91,-80.66"/>
</a>
</g>
</g>
<!-- Node5 -->
<g id="Node000005" class="node">
<title>Node5</title>
<g id="a_Node000005"><a xlink:href="class_chart_view_helper.html#a2233b809143957aebc5592a05b79a754" target="_top" xlink:title="محاسبه محل تقاطع">
<polygon fill="white" stroke="#666666" points="492.75,-54 374,-54 374,-34 492.75,-34 492.75,-54"/>
<text xml:space="preserve" text-anchor="middle" x="433.38" y="-40.5" font-family="Helvetica,sans-Serif" font-size="10.00">ChartViewHelper::findX</text>
</a>
</g>
</g>
<!-- Node3&#45;&gt;Node5 -->
<g id="edge4_Node000003_Node000005" class="edge">
<title>Node3&#45;&gt;Node5</title>
<g id="a_edge4_Node000003_Node000005"><a xlink:title=" ">
<path fill="none" stroke="#63b8ff" d="M315.12,-57.78C330.66,-55.95 347.14,-54.01 362.68,-52.19"/>
<polygon fill="#63b8ff" stroke="#63b8ff" points="362.77,-55.7 372.29,-51.06 361.95,-48.75 362.77,-55.7"/>
</a>
</g>
</g>
</g>
</svg>
