<?xml version="1.0" encoding="UTF-8" standalone="no"?>
<!DOCTYPE svg PUBLIC "-//W3C//DTD SVG 1.1//EN"
 "http://www.w3.org/Graphics/SVG/1.1/DTD/svg11.dtd">
<!-- Generated by graphviz version 13.0.1 (20250615.1724)
 -->
<!-- Title: ChartViewHelper::plotChartWithMin_and_MaxFilter Pages: 1 -->
<svg width="538pt" height="140pt"
 viewBox="0.00 0.00 538.00 140.00" xmlns="http://www.w3.org/2000/svg" xmlns:xlink="http://www.w3.org/1999/xlink">
<g id="graph0" class="graph" transform="scale(1 1) rotate(0) translate(4 136)">
<title>ChartViewHelper::plotChartWithMin_and_MaxFilter</title>
<!-- Node1 -->
<g id="Node000001" class="node">
<title>Node1</title>
<g id="a_Node000001"><a xlink:title="هم‌زمان فیلتر پایین‌گذر و بالاگذر">
<polygon fill="#999999" stroke="#666666" points="136,-82 0,-82 0,-50 136,-50 136,-82"/>
<text xml:space="preserve" text-anchor="start" x="8" y="-68.5" font-family="Helvetica,sans-Serif" font-size="10.00">ChartViewHelper::plotChart</text>
<text xml:space="preserve" text-anchor="middle" x="68" y="-56.5" font-family="Helvetica,sans-Serif" font-size="10.00">WithMin_and_MaxFilter</text>
</a>
</g>
</g>
<!-- Node2 -->
<g id="Node000002" class="node">
<title>Node2</title>
<g id="a_Node000002"><a xlink:href="class_chart_view_helper.html#a851a6e70cd1503dde9f47d0036d422b6" target="_top" xlink:title="فیلتر بالا گذر و پایین گذر برای حالت گسسته">
<polygon fill="white" stroke="#666666" points="330.5,-132 173.5,-132 173.5,-100 330.5,-100 330.5,-132"/>
<text xml:space="preserve" text-anchor="start" x="181.5" y="-118.5" font-family="Helvetica,sans-Serif" font-size="10.00">ChartViewHelper::_plotChart</text>
<text xml:space="preserve" text-anchor="middle" x="252" y="-106.5" font-family="Helvetica,sans-Serif" font-size="10.00">WithMin_and_MaxFilte_BarChar</text>
</a>
</g>
</g>
<!-- Node1&#45;&gt;Node2 -->
<g id="edge1_Node000001_Node000002" class="edge">
<title>Node1&#45;&gt;Node2</title>
<g id="a_edge1_Node000001_Node000002"><a xlink:title=" ">
<path fill="none" stroke="#63b8ff" d="M128.85,-82.44C145.25,-86.95 163.19,-91.88 180.14,-96.53"/>
<polygon fill="#63b8ff" stroke="#63b8ff" points="179.09,-99.87 189.66,-99.15 180.94,-93.12 179.09,-99.87"/>
</a>
</g>
</g>
<!-- Node3 -->
<g id="Node000003" class="node">
<title>Node3</title>
<g id="a_Node000003"><a xlink:href="class_chart_view_helper.html#a15fb9c1de16ba306ee4319aa1d69bfaf" target="_top" xlink:title="فیلتر بالا گذر و پایین گذر برای حالت پیوسته">
<polygon fill="white" stroke="#666666" points="332,-82 172,-82 172,-50 332,-50 332,-82"/>
<text xml:space="preserve" text-anchor="start" x="180" y="-68.5" font-family="Helvetica,sans-Serif" font-size="10.00">ChartViewHelper::_plotChart</text>
<text xml:space="preserve" text-anchor="middle" x="252" y="-56.5" font-family="Helvetica,sans-Serif" font-size="10.00">WithMin_and_MaxFilte_LineChar</text>
</a>
</g>
</g>
<!-- Node1&#45;&gt;Node3 -->
<g id="edge2_Node000001_Node000003" class="edge">
<title>Node1&#45;&gt;Node3</title>
<g id="a_edge2_Node000001_Node000003"><a xlink:title=" ">
<path fill="none" stroke="#63b8ff" d="M136.25,-66C144.1,-66 152.2,-66 160.29,-66"/>
<polygon fill="#63b8ff" stroke="#63b8ff" points="160.2,-69.5 170.2,-66 160.2,-62.5 160.2,-69.5"/>
</a>
</g>
</g>
<!-- Node7 -->
<g id="Node000007" class="node">
<title>Node7</title>
<g id="a_Node000007"><a xlink:href="class_chart_view_helper.html#a6dc5562d8e7d51aa481f4b7543c8abc1" target="_top" xlink:title="تنظیم ظاهر و ویژگی‌های پایه نمودار">
<polygon fill="white" stroke="#666666" points="324.12,-32 179.88,-32 179.88,0 324.12,0 324.12,-32"/>
<text xml:space="preserve" text-anchor="start" x="187.88" y="-18.5" font-family="Helvetica,sans-Serif" font-size="10.00">ChartViewHelper::setupChart</text>
<text xml:space="preserve" text-anchor="middle" x="252" y="-6.5" font-family="Helvetica,sans-Serif" font-size="10.00">Appearance</text>
</a>
</g>
</g>
<!-- Node1&#45;&gt;Node7 -->
<g id="edge6_Node000001_Node000007" class="edge">
<title>Node1&#45;&gt;Node7</title>
<g id="a_edge6_Node000001_Node000007"><a xlink:title=" ">
<path fill="none" stroke="#63b8ff" d="M128.85,-49.56C145.25,-45.05 163.19,-40.12 180.14,-35.47"/>
<polygon fill="#63b8ff" stroke="#63b8ff" points="180.94,-38.88 189.66,-32.85 179.09,-32.13 180.94,-38.88"/>
</a>
</g>
</g>
<!-- Node4 -->
<g id="Node000004" class="node">
<title>Node4</title>
<g id="a_Node000004"><a xlink:href="class_chart_view_helper.html#a455257413900c969958bf01814dc1b64" target="_top" xlink:title="ساخت سری‌های کران بالا و کران پایین برای حساب کردن مساحت فیلترشده">
<polygon fill="white" stroke="#666666" points="530.25,-132 368,-132 368,-100 530.25,-100 530.25,-132"/>
<text xml:space="preserve" text-anchor="start" x="376" y="-118.5" font-family="Helvetica,sans-Serif" font-size="10.00">ChartViewHelper::appendMasked</text>
<text xml:space="preserve" text-anchor="middle" x="449.12" y="-106.5" font-family="Helvetica,sans-Serif" font-size="10.00">SeriesByLowerBound</text>
</a>
</g>
</g>
<!-- Node3&#45;&gt;Node4 -->
<g id="edge3_Node000003_Node000004" class="edge">
<title>Node3&#45;&gt;Node4</title>
<g id="a_edge3_Node000003_Node000004"><a xlink:title=" ">
<path fill="none" stroke="#63b8ff" d="M317.16,-82.44C335,-87.01 354.53,-92.02 372.94,-96.73"/>
<polygon fill="#63b8ff" stroke="#63b8ff" points="371.9,-100.08 382.46,-99.17 373.64,-93.3 371.9,-100.08"/>
</a>
</g>
</g>
<!-- Node5 -->
<g id="Node000005" class="node">
<title>Node5</title>
<g id="a_Node000005"><a xlink:href="class_chart_view_helper.html#a44ba1265fed2d71ca4e61c3b4f56f655" target="_top" xlink:title="ساخت سری‌های کران بالا و کران پایین برای حساب کردن مساحت فیلترشده">
<polygon fill="white" stroke="#666666" points="530.25,-82 368,-82 368,-50 530.25,-50 530.25,-82"/>
<text xml:space="preserve" text-anchor="start" x="376" y="-68.5" font-family="Helvetica,sans-Serif" font-size="10.00">ChartViewHelper::appendMasked</text>
<text xml:space="preserve" text-anchor="middle" x="449.12" y="-56.5" font-family="Helvetica,sans-Serif" font-size="10.00">SeriesByUpperBound</text>
</a>
</g>
</g>
<!-- Node3&#45;&gt;Node5 -->
<g id="edge4_Node000003_Node000005" class="edge">
<title>Node3&#45;&gt;Node5</title>
<g id="a_edge4_Node000003_Node000005"><a xlink:title=" ">
<path fill="none" stroke="#63b8ff" d="M332.36,-66C340.25,-66 348.31,-66 356.31,-66"/>
<polygon fill="#63b8ff" stroke="#63b8ff" points="356.05,-69.5 366.05,-66 356.05,-62.5 356.05,-69.5"/>
</a>
</g>
</g>
<!-- Node6 -->
<g id="Node000006" class="node">
<title>Node6</title>
<g id="a_Node000006"><a xlink:href="class_chart_view_helper.html#a2233b809143957aebc5592a05b79a754" target="_top" xlink:title="محاسبه محل تقاطع">
<polygon fill="white" stroke="#666666" points="508.5,-32 389.75,-32 389.75,-12 508.5,-12 508.5,-32"/>
<text xml:space="preserve" text-anchor="middle" x="449.12" y="-18.5" font-family="Helvetica,sans-Serif" font-size="10.00">ChartViewHelper::findX</text>
</a>
</g>
</g>
<!-- Node3&#45;&gt;Node6 -->
<g id="edge5_Node000003_Node000006" class="edge">
<title>Node3&#45;&gt;Node6</title>
<g id="a_edge5_Node000003_Node000006"><a xlink:title=" ">
<path fill="none" stroke="#63b8ff" d="M325.93,-49.55C347.21,-44.76 370.15,-39.58 390.35,-35.03"/>
<polygon fill="#63b8ff" stroke="#63b8ff" points="391.11,-38.44 400.1,-32.83 389.58,-31.61 391.11,-38.44"/>
</a>
</g>
</g>
</g>
</svg>
