<?xml version="1.0" encoding="UTF-8" standalone="no"?>
<!DOCTYPE svg PUBLIC "-//W3C//DTD SVG 1.1//EN"
 "http://www.w3.org/Graphics/SVG/1.1/DTD/svg11.dtd">
<!-- Generated by graphviz version 13.0.1 (20250615.1724)
 -->
<!-- Title: ClientClassTcp::canConnectToServer Pages: 1 -->
<svg width="321pt" height="66pt"
 viewBox="0.00 0.00 321.00 66.00" xmlns="http://www.w3.org/2000/svg" xmlns:xlink="http://www.w3.org/1999/xlink">
<g id="graph0" class="graph" transform="scale(1 1) rotate(0) translate(4 62)">
<title>ClientClassTcp::canConnectToServer</title>
<!-- Node1 -->
<g id="Node000001" class="node">
<title>Node1</title>
<g id="a_Node000001"><a xlink:title="بررسی امکان اتصال به سرور">
<polygon fill="#999999" stroke="#666666" points="141.25,-45 0,-45 0,-13 141.25,-13 141.25,-45"/>
<text xml:space="preserve" text-anchor="start" x="8" y="-31.5" font-family="Helvetica,sans-Serif" font-size="10.00">ClientClassTcp::canConnect</text>
<text xml:space="preserve" text-anchor="middle" x="70.62" y="-19.5" font-family="Helvetica,sans-Serif" font-size="10.00">ToServer</text>
</a>
</g>
</g>
<!-- Node2 -->
<g id="Node000002" class="node">
<title>Node2</title>
<g id="a_Node000002"><a xlink:href="class_client_class_tcp.html#a025e48a207075147b8dfec86102152af" target="_top" xlink:title="بررسی معتبر بودن آی‌پی">
<polygon fill="white" stroke="#666666" points="307.62,-58 182.12,-58 182.12,-38 307.62,-38 307.62,-58"/>
<text xml:space="preserve" text-anchor="middle" x="244.88" y="-44.5" font-family="Helvetica,sans-Serif" font-size="10.00">ClientClassTcp::isValidIp</text>
</a>
</g>
</g>
<!-- Node1&#45;&gt;Node2 -->
<g id="edge1_Node000001_Node000002" class="edge">
<title>Node1&#45;&gt;Node2</title>
<g id="a_edge1_Node000001_Node000002"><a xlink:title=" ">
<path fill="none" stroke="#63b8ff" d="M141.69,-36.73C151.09,-37.77 160.76,-38.83 170.22,-39.88"/>
<polygon fill="#63b8ff" stroke="#63b8ff" points="169.8,-43.35 180.12,-40.97 170.57,-36.39 169.8,-43.35"/>
</a>
</g>
</g>
<!-- Node3 -->
<g id="Node000003" class="node">
<title>Node3</title>
<g id="a_Node000003"><a xlink:href="class_client_class_tcp.html#ae4e8c696d3d98052e0facfc1f70eba88" target="_top" xlink:title="بررسی معتبر بودن شماره پورت">
<polygon fill="white" stroke="#666666" points="312.5,-20 177.25,-20 177.25,0 312.5,0 312.5,-20"/>
<text xml:space="preserve" text-anchor="middle" x="244.88" y="-6.5" font-family="Helvetica,sans-Serif" font-size="10.00">ClientClassTcp::isValidPort</text>
</a>
</g>
</g>
<!-- Node1&#45;&gt;Node3 -->
<g id="edge2_Node000001_Node000003" class="edge">
<title>Node1&#45;&gt;Node3</title>
<g id="a_edge2_Node000001_Node000003"><a xlink:title=" ">
<path fill="none" stroke="#63b8ff" d="M141.69,-21.27C149.6,-20.4 157.7,-19.51 165.71,-18.62"/>
<polygon fill="#63b8ff" stroke="#63b8ff" points="165.88,-22.12 175.44,-17.55 165.11,-15.17 165.88,-22.12"/>
</a>
</g>
</g>
</g>
</svg>
