<?xml version="1.0" encoding="UTF-8" standalone="no"?>
<!DOCTYPE svg PUBLIC "-//W3C//DTD SVG 1.1//EN"
 "http://www.w3.org/Graphics/SVG/1.1/DTD/svg11.dtd">
<!-- Generated by graphviz version 13.0.1 (20250615.1724)
 -->
<!-- Title: MainWindow::updateChart Pages: 1 -->
<svg width="336pt" height="78pt"
 viewBox="0.00 0.00 336.00 78.00" xmlns="http://www.w3.org/2000/svg" xmlns:xlink="http://www.w3.org/1999/xlink">
<g id="graph0" class="graph" transform="scale(1 1) rotate(0) translate(4 74)">
<title>MainWindow::updateChart</title>
<!-- Node1 -->
<g id="Node000001" class="node">
<title>Node1</title>
<g id="a_Node000001"><a xlink:title="به‌روزرسانی نمودار با داده‌های جدید">
<polygon fill="#999999" stroke="#666666" points="131.5,-42 0,-42 0,-22 131.5,-22 131.5,-42"/>
<text xml:space="preserve" text-anchor="middle" x="65.75" y="-28.5" font-family="Helvetica,sans-Serif" font-size="10.00">MainWindow::updateChart</text>
</a>
</g>
</g>
<!-- Node2 -->
<g id="Node000002" class="node">
<title>Node2</title>
<g id="a_Node000002"><a xlink:href="class_main_window.html#a42f37a2f40b4f7996093f44990ca2fa2" target="_top" xlink:title="بازسازی نمودار موجود">
<polygon fill="white" stroke="#666666" points="306.5,-70 188.5,-70 188.5,-38 306.5,-38 306.5,-70"/>
<text xml:space="preserve" text-anchor="start" x="196.5" y="-56.5" font-family="Helvetica,sans-Serif" font-size="10.00">MainWindow::_Refresh</text>
<text xml:space="preserve" text-anchor="middle" x="247.5" y="-44.5" font-family="Helvetica,sans-Serif" font-size="10.00">_chart</text>
</a>
</g>
</g>
<!-- Node1&#45;&gt;Node2 -->
<g id="edge1_Node000001_Node000002" class="edge">
<title>Node1&#45;&gt;Node2</title>
<g id="a_edge1_Node000001_Node000002"><a xlink:title=" ">
<path fill="none" stroke="#63b8ff" d="M131.9,-39.97C146.55,-41.77 162.15,-43.68 176.97,-45.49"/>
<polygon fill="#63b8ff" stroke="#63b8ff" points="176.28,-48.93 186.63,-46.67 177.13,-41.98 176.28,-48.93"/>
</a>
</g>
</g>
<!-- Node3 -->
<g id="Node000003" class="node">
<title>Node3</title>
<g id="a_Node000003"><a xlink:href="class_main_window.html#a7ff5c7b7116965f44d0f044ac0200d59" target="_top" xlink:title="تعیین نوع نمایش نمودار (خطی یا ستونی)">
<polygon fill="white" stroke="#666666" points="327.5,-20 167.5,-20 167.5,0 327.5,0 327.5,-20"/>
<text xml:space="preserve" text-anchor="middle" x="247.5" y="-6.5" font-family="Helvetica,sans-Serif" font-size="10.00">MainWindow::_SetModeOFChart</text>
</a>
</g>
</g>
<!-- Node1&#45;&gt;Node3 -->
<g id="edge2_Node000001_Node000003" class="edge">
<title>Node1&#45;&gt;Node3</title>
<g id="a_edge2_Node000001_Node000003"><a xlink:title=" ">
<path fill="none" stroke="#63b8ff" d="M131.9,-24.03C139.68,-23.07 147.74,-22.09 155.8,-21.1"/>
<polygon fill="#63b8ff" stroke="#63b8ff" points="156.17,-24.58 165.67,-19.89 155.32,-17.63 156.17,-24.58"/>
</a>
</g>
</g>
</g>
</svg>
