<?xml version="1.0" encoding="UTF-8" standalone="no"?>
<!DOCTYPE svg PUBLIC "-//W3C//DTD SVG 1.1//EN"
 "http://www.w3.org/Graphics/SVG/1.1/DTD/svg11.dtd">
<!-- Generated by graphviz version 13.0.1 (20250615.1724)
 -->
<!-- Title: MainWindow Pages: 1 -->
<svg width="600pt" height="250pt"
 viewBox="0.00 0.00 600.00 250.00" xmlns="http://www.w3.org/2000/svg" xmlns:xlink="http://www.w3.org/1999/xlink">
<g id="graph0" class="graph" transform="scale(1 1) rotate(0) translate(4 246)">
<title>MainWindow</title>
<!-- Node1 -->
<g id="Node000001" class="node">
<title>Node1</title>
<g id="a_Node000001"><a xlink:title=" ">
<polygon fill="#999999" stroke="#666666" points="321,-20 248.75,-20 248.75,0 321,0 321,-20"/>
<text xml:space="preserve" text-anchor="middle" x="284.88" y="-6.5" font-family="Helvetica,sans-Serif" font-size="10.00">MainWindow</text>
</a>
</g>
</g>
<!-- Node2 -->
<g id="Node000002" class="node">
<title>Node2</title>
<g id="a_Node000002"><a xlink:title=" ">
<polygon fill="white" stroke="#bfbfbf" points="79.75,-94 0,-94 0,-74 79.75,-74 79.75,-94"/>
<text xml:space="preserve" text-anchor="middle" x="39.88" y="-80.5" font-family="Helvetica,sans-Serif" font-size="10.00">QMainWindow</text>
</a>
</g>
</g>
<!-- Node2&#45;&gt;Node1 -->
<g id="edge1_Node000001_Node000002" class="edge">
<title>Node2&#45;&gt;Node1</title>
<g id="a_edge1_Node000001_Node000002"><a xlink:title=" ">
<path fill="none" stroke="#63b8ff" d="M70.84,-69.09C93.49,-59.34 125.14,-46.56 153.88,-38 185.25,-28.65 221.81,-21.41 248.32,-16.79"/>
<polygon fill="#63b8ff" stroke="#63b8ff" points="69.66,-65.79 61.89,-73 72.46,-72.21 69.66,-65.79"/>
</a>
</g>
</g>
<!-- Node3 -->
<g id="Node000003" class="node">
<title>Node3</title>
<g id="a_Node000003"><a xlink:href="class_basic_functions.html" target="_top" xlink:title="مجموعه‌ای از توابع کمکی برای بهبود رابط گرافیکی برنامه">
<polygon fill="white" stroke="#666666" points="181.62,-94 98.12,-94 98.12,-74 181.62,-74 181.62,-94"/>
<text xml:space="preserve" text-anchor="middle" x="139.88" y="-80.5" font-family="Helvetica,sans-Serif" font-size="10.00">BasicFunctions</text>
</a>
</g>
</g>
<!-- Node3&#45;&gt;Node1 -->
<g id="edge2_Node000001_Node000003" class="edge">
<title>Node3&#45;&gt;Node1</title>
<g id="a_edge2_Node000001_Node000003"><a xlink:title=" ">
<path fill="none" stroke="#9a32cd" stroke-dasharray="5,2" d="M150.9,-64.01C157.13,-54.87 165.71,-44.51 175.88,-38 197.63,-24.07 226.07,-17.33 248.44,-14.06"/>
<polygon fill="#9a32cd" stroke="#9a32cd" points="148.08,-61.94 145.71,-72.26 154,-65.66 148.08,-61.94"/>
</a>
</g>
<text xml:space="preserve" text-anchor="start" x="178.88" y="-43.5" font-family="Helvetica,sans-Serif" font-size="10.00" fill="grey">mybasicfunctis</text>
</g>
<!-- Node4 -->
<g id="Node000004" class="node">
<title>Node4</title>
<g id="a_Node000004"><a xlink:href="class_chart_view_helper.html" target="_top" xlink:title="ترسیم نمودارهای خطی و ستونی با امکان فیلترهاگذاری">
<polygon fill="white" stroke="#666666" points="290,-94 199.75,-94 199.75,-74 290,-74 290,-94"/>
<text xml:space="preserve" text-anchor="middle" x="244.88" y="-80.5" font-family="Helvetica,sans-Serif" font-size="10.00">ChartViewHelper</text>
</a>
</g>
</g>
<!-- Node4&#45;&gt;Node1 -->
<g id="edge3_Node000001_Node000004" class="edge">
<title>Node4&#45;&gt;Node1</title>
<g id="a_edge3_Node000001_Node000004"><a xlink:title=" ">
<path fill="none" stroke="#9a32cd" stroke-dasharray="5,2" d="M249.84,-62.56C252.28,-54.58 255.66,-45.54 260.12,-38 264.01,-31.43 269.69,-25.09 274.63,-20.2"/>
<polygon fill="#9a32cd" stroke="#9a32cd" points="246.5,-61.53 247.26,-72.09 253.25,-63.36 246.5,-61.53"/>
</a>
</g>
<text xml:space="preserve" text-anchor="start" x="263.12" y="-43.5" font-family="Helvetica,sans-Serif" font-size="10.00" fill="grey">chartTest1</text>
</g>
<!-- Node5 -->
<g id="Node000005" class="node">
<title>Node5</title>
<g id="a_Node000005"><a xlink:href="class_client_class_tcp.html" target="_top" xlink:title="کلاس مدیریت اتصال در سمت کلاینت">
<polygon fill="white" stroke="#666666" points="383.25,-168 300.5,-168 300.5,-148 383.25,-148 383.25,-168"/>
<text xml:space="preserve" text-anchor="middle" x="341.88" y="-154.5" font-family="Helvetica,sans-Serif" font-size="10.00">ClientClassTcp</text>
</a>
</g>
</g>
<!-- Node5&#45;&gt;Node1 -->
<g id="edge4_Node000001_Node000005" class="edge">
<title>Node5&#45;&gt;Node1</title>
<g id="a_edge4_Node000001_Node000005"><a xlink:title=" ">
<path fill="none" stroke="#9a32cd" stroke-dasharray="5,2" d="M340.06,-136.54C337.14,-111.8 329.78,-69.56 311.88,-38 308.08,-31.31 302.18,-25.14 296.86,-20.39"/>
<polygon fill="#9a32cd" stroke="#9a32cd" points="336.55,-136.63 341.06,-146.22 343.52,-135.92 336.55,-136.63"/>
</a>
</g>
<text xml:space="preserve" text-anchor="start" x="335.48" y="-80.5" font-family="Helvetica,sans-Serif" font-size="10.00" fill="grey">MainClientIs_Global</text>
</g>
<!-- Node8 -->
<g id="Node000008" class="node">
<title>Node8</title>
<g id="a_Node000008"><a xlink:href="classloginhandler.html" target="_top" xlink:title="کلاس بررسی و مدیریت ورود کاربران">
<polygon fill="white" stroke="#666666" points="505.75,-94 438,-94 438,-74 505.75,-74 505.75,-94"/>
<text xml:space="preserve" text-anchor="middle" x="471.88" y="-80.5" font-family="Helvetica,sans-Serif" font-size="10.00">loginhandler</text>
</a>
</g>
</g>
<!-- Node5&#45;&gt;Node8 -->
<g id="edge8_Node000008_Node000005" class="edge">
<title>Node5&#45;&gt;Node8</title>
<g id="a_edge8_Node000008_Node000005"><a xlink:title=" ">
<path fill="none" stroke="#9a32cd" stroke-dasharray="5,2" d="M368.78,-142.1C394.66,-127.77 432.98,-106.54 454.88,-94.42"/>
<polygon fill="#9a32cd" stroke="#9a32cd" points="367.25,-138.95 360.19,-146.85 370.64,-145.07 367.25,-138.95"/>
</a>
</g>
<text xml:space="preserve" text-anchor="start" x="425.34" y="-117.5" font-family="Helvetica,sans-Serif" font-size="10.00" fill="grey">curentclient</text>
</g>
<!-- Node6 -->
<g id="Node000006" class="node">
<title>Node6</title>
<g id="a_Node000006"><a xlink:href="classgenerate_message.html" target="_top" xlink:title="کلاس ساخت پیام برای ارتباط با سرور">
<polygon fill="white" stroke="#666666" points="388.5,-242 295.25,-242 295.25,-222 388.5,-222 388.5,-242"/>
<text xml:space="preserve" text-anchor="middle" x="341.88" y="-228.5" font-family="Helvetica,sans-Serif" font-size="10.00">generateMessage</text>
</a>
</g>
</g>
<!-- Node6&#45;&gt;Node5 -->
<g id="edge5_Node000005_Node000006" class="edge">
<title>Node6&#45;&gt;Node5</title>
<g id="a_edge5_Node000005_Node000006"><a xlink:title=" ">
<path fill="none" stroke="#9a32cd" stroke-dasharray="5,2" d="M341.88,-210.18C341.88,-196.29 341.88,-178.71 341.88,-168.19"/>
<polygon fill="#9a32cd" stroke="#9a32cd" points="338.38,-210.07 341.88,-220.07 345.38,-210.07 338.38,-210.07"/>
</a>
</g>
<text xml:space="preserve" text-anchor="start" x="344.88" y="-191.5" font-family="Helvetica,sans-Serif" font-size="10.00" fill="grey">_generater</text>
</g>
<!-- Node7 -->
<g id="Node000007" class="node">
<title>Node7</title>
<g id="a_Node000007"><a xlink:href="class_gui_manager.html" target="_top" xlink:title="کلاس کمکی برای رابط گرافیکی برنامه">
<polygon fill="white" stroke="#666666" points="592.12,-94 523.62,-94 523.62,-74 592.12,-74 592.12,-94"/>
<text xml:space="preserve" text-anchor="middle" x="557.88" y="-80.5" font-family="Helvetica,sans-Serif" font-size="10.00">GuiManager</text>
</a>
</g>
</g>
<!-- Node7&#45;&gt;Node1 -->
<g id="edge6_Node000001_Node000007" class="edge">
<title>Node7&#45;&gt;Node1</title>
<g id="a_edge6_Node000001_Node000007"><a xlink:title=" ">
<path fill="none" stroke="#9a32cd" stroke-dasharray="5,2" d="M533.4,-68.09C515.79,-58.04 491.14,-45.32 467.88,-38 418.56,-22.47 358.89,-15.79 321.4,-12.98"/>
<polygon fill="#9a32cd" stroke="#9a32cd" points="531.19,-70.85 541.59,-72.88 534.72,-64.81 531.19,-70.85"/>
</a>
</g>
<text xml:space="preserve" text-anchor="start" x="511.56" y="-43.5" font-family="Helvetica,sans-Serif" font-size="10.00" fill="grey">guiManager</text>
</g>
<!-- Node8&#45;&gt;Node1 -->
<g id="edge7_Node000001_Node000008" class="edge">
<title>Node8&#45;&gt;Node1</title>
<g id="a_edge7_Node000001_Node000008"><a xlink:title=" ">
<path fill="none" stroke="#9a32cd" stroke-dasharray="5,2" d="M437.07,-69.6C399.9,-55.29 341.95,-32.98 309.33,-20.42"/>
<polygon fill="#9a32cd" stroke="#9a32cd" points="435.43,-72.72 446.02,-73.04 437.94,-66.18 435.43,-72.72"/>
</a>
</g>
<text xml:space="preserve" text-anchor="start" x="403.62" y="-43.5" font-family="Helvetica,sans-Serif" font-size="10.00" fill="grey">loginManager</text>
</g>
</g>
</svg>
