<?xml version="1.0" encoding="UTF-8" standalone="no"?>
<!DOCTYPE svg PUBLIC "-//W3C//DTD SVG 1.1//EN"
 "http://www.w3.org/Graphics/SVG/1.1/DTD/svg11.dtd">
<!-- Generated by graphviz version 13.0.1 (20250615.1724)
 -->
<!-- Title: ChartViewHelper::_plotChartWithMin_and_MaxFilte_LineChar Pages: 1 -->
<svg width="366pt" height="128pt"
 viewBox="0.00 0.00 366.00 128.00" xmlns="http://www.w3.org/2000/svg" xmlns:xlink="http://www.w3.org/1999/xlink">
<g id="graph0" class="graph" transform="scale(1 1) rotate(0) translate(4 124)">
<title>ChartViewHelper::_plotChartWithMin_and_MaxFilte_LineChar</title>
<!-- Node1 -->
<g id="Node000001" class="node">
<title>Node1</title>
<g id="a_Node000001"><a xlink:title="فیلتر بالا گذر و پایین گذر برای حالت پیوسته">
<polygon fill="#999999" stroke="#666666" points="160,-70 0,-70 0,-38 160,-38 160,-70"/>
<text xml:space="preserve" text-anchor="start" x="8" y="-56.5" font-family="Helvetica,sans-Serif" font-size="10.00">ChartViewHelper::_plotChart</text>
<text xml:space="preserve" text-anchor="middle" x="80" y="-44.5" font-family="Helvetica,sans-Serif" font-size="10.00">WithMin_and_MaxFilte_LineChar</text>
</a>
</g>
</g>
<!-- Node2 -->
<g id="Node000002" class="node">
<title>Node2</title>
<g id="a_Node000002"><a xlink:href="class_chart_view_helper.html#a455257413900c969958bf01814dc1b64" target="_top" xlink:title="ساخت سری‌های کران بالا و کران پایین برای حساب کردن مساحت فیلترشده">
<polygon fill="white" stroke="#666666" points="358.25,-120 196,-120 196,-88 358.25,-88 358.25,-120"/>
<text xml:space="preserve" text-anchor="start" x="204" y="-106.5" font-family="Helvetica,sans-Serif" font-size="10.00">ChartViewHelper::appendMasked</text>
<text xml:space="preserve" text-anchor="middle" x="277.12" y="-94.5" font-family="Helvetica,sans-Serif" font-size="10.00">SeriesByLowerBound</text>
</a>
</g>
</g>
<!-- Node1&#45;&gt;Node2 -->
<g id="edge1_Node000001_Node000002" class="edge">
<title>Node1&#45;&gt;Node2</title>
<g id="a_edge1_Node000001_Node000002"><a xlink:title=" ">
<path fill="none" stroke="#63b8ff" d="M145.16,-70.44C163,-75.01 182.53,-80.02 200.94,-84.73"/>
<polygon fill="#63b8ff" stroke="#63b8ff" points="199.9,-88.08 210.46,-87.17 201.64,-81.3 199.9,-88.08"/>
</a>
</g>
</g>
<!-- Node3 -->
<g id="Node000003" class="node">
<title>Node3</title>
<g id="a_Node000003"><a xlink:href="class_chart_view_helper.html#a44ba1265fed2d71ca4e61c3b4f56f655" target="_top" xlink:title="ساخت سری‌های کران بالا و کران پایین برای حساب کردن مساحت فیلترشده">
<polygon fill="white" stroke="#666666" points="358.25,-70 196,-70 196,-38 358.25,-38 358.25,-70"/>
<text xml:space="preserve" text-anchor="start" x="204" y="-56.5" font-family="Helvetica,sans-Serif" font-size="10.00">ChartViewHelper::appendMasked</text>
<text xml:space="preserve" text-anchor="middle" x="277.12" y="-44.5" font-family="Helvetica,sans-Serif" font-size="10.00">SeriesByUpperBound</text>
</a>
</g>
</g>
<!-- Node1&#45;&gt;Node3 -->
<g id="edge2_Node000001_Node000003" class="edge">
<title>Node1&#45;&gt;Node3</title>
<g id="a_edge2_Node000001_Node000003"><a xlink:title=" ">
<path fill="none" stroke="#63b8ff" d="M160.36,-54C168.25,-54 176.31,-54 184.31,-54"/>
<polygon fill="#63b8ff" stroke="#63b8ff" points="184.05,-57.5 194.05,-54 184.05,-50.5 184.05,-57.5"/>
</a>
</g>
</g>
<!-- Node4 -->
<g id="Node000004" class="node">
<title>Node4</title>
<g id="a_Node000004"><a xlink:href="class_chart_view_helper.html#a2233b809143957aebc5592a05b79a754" target="_top" xlink:title="محاسبه محل تقاطع">
<polygon fill="white" stroke="#666666" points="336.5,-20 217.75,-20 217.75,0 336.5,0 336.5,-20"/>
<text xml:space="preserve" text-anchor="middle" x="277.12" y="-6.5" font-family="Helvetica,sans-Serif" font-size="10.00">ChartViewHelper::findX</text>
</a>
</g>
</g>
<!-- Node1&#45;&gt;Node4 -->
<g id="edge3_Node000001_Node000004" class="edge">
<title>Node1&#45;&gt;Node4</title>
<g id="a_edge3_Node000001_Node000004"><a xlink:title=" ">
<path fill="none" stroke="#63b8ff" d="M153.93,-37.55C175.21,-32.76 198.15,-27.58 218.35,-23.03"/>
<polygon fill="#63b8ff" stroke="#63b8ff" points="219.11,-26.44 228.1,-20.83 217.58,-19.61 219.11,-26.44"/>
</a>
</g>
</g>
</g>
</svg>
