<?xml version="1.0" encoding="UTF-8" standalone="no"?>
<!DOCTYPE svg PUBLIC "-//W3C//DTD SVG 1.1//EN"
 "http://www.w3.org/Graphics/SVG/1.1/DTD/svg11.dtd">
<!-- Generated by graphviz version 13.0.1 (20250615.1724)
 -->
<!-- Title: ChartViewHelper::findX Pages: 1 -->
<svg width="495pt" height="140pt"
 viewBox="0.00 0.00 495.00 140.00" xmlns="http://www.w3.org/2000/svg" xmlns:xlink="http://www.w3.org/1999/xlink">
<g id="graph0" class="graph" transform="scale(1 1) rotate(0) translate(4 136)">
<title>ChartViewHelper::findX</title>
<!-- Node1 -->
<g id="Node000001" class="node">
<title>Node1</title>
<g id="a_Node000001"><a xlink:title="محاسبه محل تقاطع">
<polygon fill="#999999" stroke="#666666" points="486.75,-76 368,-76 368,-56 486.75,-56 486.75,-76"/>
<text xml:space="preserve" text-anchor="middle" x="427.38" y="-62.5" font-family="Helvetica,sans-Serif" font-size="10.00">ChartViewHelper::findX</text>
</a>
</g>
</g>
<!-- Node2 -->
<g id="Node000002" class="node">
<title>Node2</title>
<g id="a_Node000002"><a xlink:href="class_chart_view_helper.html#afe8dc70dc392995d62b491a32835cb9e" target="_top" xlink:title="فیلتر بالا گذر برای حالت پیوسته">
<polygon fill="white" stroke="#666666" points="322.62,-132 181.38,-132 181.38,-100 322.62,-100 322.62,-132"/>
<text xml:space="preserve" text-anchor="start" x="189.38" y="-118.5" font-family="Helvetica,sans-Serif" font-size="10.00">ChartViewHelper::_plotChart</text>
<text xml:space="preserve" text-anchor="middle" x="252" y="-106.5" font-family="Helvetica,sans-Serif" font-size="10.00">WithMaxFilter_LineChar</text>
</a>
</g>
</g>
<!-- Node1&#45;&gt;Node2 -->
<g id="edge1_Node000001_Node000002" class="edge">
<title>Node1&#45;&gt;Node2</title>
<g id="a_edge1_Node000001_Node000002"><a xlink:title=" ">
<path fill="none" stroke="#63b8ff" d="M378.99,-79.67C357.71,-85.8 332.43,-93.09 310.11,-99.53"/>
<polygon fill="#63b8ff" stroke="#63b8ff" points="379.94,-83.04 388.58,-76.9 378,-76.31 379.94,-83.04"/>
</a>
</g>
</g>
<!-- Node4 -->
<g id="Node000004" class="node">
<title>Node4</title>
<g id="a_Node000004"><a xlink:href="class_chart_view_helper.html#a15fb9c1de16ba306ee4319aa1d69bfaf" target="_top" xlink:title="فیلتر بالا گذر و پایین گذر برای حالت پیوسته">
<polygon fill="white" stroke="#666666" points="332,-82 172,-82 172,-50 332,-50 332,-82"/>
<text xml:space="preserve" text-anchor="start" x="180" y="-68.5" font-family="Helvetica,sans-Serif" font-size="10.00">ChartViewHelper::_plotChart</text>
<text xml:space="preserve" text-anchor="middle" x="252" y="-56.5" font-family="Helvetica,sans-Serif" font-size="10.00">WithMin_and_MaxFilte_LineChar</text>
</a>
</g>
</g>
<!-- Node1&#45;&gt;Node4 -->
<g id="edge3_Node000001_Node000004" class="edge">
<title>Node1&#45;&gt;Node4</title>
<g id="a_edge3_Node000001_Node000004"><a xlink:title=" ">
<path fill="none" stroke="#63b8ff" d="M356.26,-66C348.35,-66 340.25,-66 332.24,-66"/>
<polygon fill="#63b8ff" stroke="#63b8ff" points="356.16,-69.5 366.16,-66 356.16,-62.5 356.16,-69.5"/>
</a>
</g>
</g>
<!-- Node6 -->
<g id="Node000006" class="node">
<title>Node6</title>
<g id="a_Node000006"><a xlink:href="class_chart_view_helper.html#a51b15c958604a5917fd9bbcf9edf51b7" target="_top" xlink:title="فیلتر پایین گذر برای حالت پیوسته">
<polygon fill="white" stroke="#666666" points="322.62,-32 181.38,-32 181.38,0 322.62,0 322.62,-32"/>
<text xml:space="preserve" text-anchor="start" x="189.38" y="-18.5" font-family="Helvetica,sans-Serif" font-size="10.00">ChartViewHelper::_plotChart</text>
<text xml:space="preserve" text-anchor="middle" x="252" y="-6.5" font-family="Helvetica,sans-Serif" font-size="10.00">WithMinFilter_LineChar</text>
</a>
</g>
</g>
<!-- Node1&#45;&gt;Node6 -->
<g id="edge5_Node000001_Node000006" class="edge">
<title>Node1&#45;&gt;Node6</title>
<g id="a_edge5_Node000001_Node000006"><a xlink:title=" ">
<path fill="none" stroke="#63b8ff" d="M378.99,-52.33C357.71,-46.2 332.43,-38.91 310.11,-32.47"/>
<polygon fill="#63b8ff" stroke="#63b8ff" points="378,-55.69 388.58,-55.1 379.94,-48.96 378,-55.69"/>
</a>
</g>
</g>
<!-- Node3 -->
<g id="Node000003" class="node">
<title>Node3</title>
<g id="a_Node000003"><a xlink:href="class_chart_view_helper.html#a7de649321e8d724b27a635423ea017b6" target="_top" xlink:title="فیلتربالا گذر برای داه‌ها">
<polygon fill="white" stroke="#666666" points="136,-132 0,-132 0,-100 136,-100 136,-132"/>
<text xml:space="preserve" text-anchor="start" x="8" y="-118.5" font-family="Helvetica,sans-Serif" font-size="10.00">ChartViewHelper::plotChart</text>
<text xml:space="preserve" text-anchor="middle" x="68" y="-106.5" font-family="Helvetica,sans-Serif" font-size="10.00">WithMaxFilter</text>
</a>
</g>
</g>
<!-- Node2&#45;&gt;Node3 -->
<g id="edge2_Node000002_Node000003" class="edge">
<title>Node2&#45;&gt;Node3</title>
<g id="a_edge2_Node000002_Node000003"><a xlink:title=" ">
<path fill="none" stroke="#63b8ff" d="M169.46,-116C158.4,-116 147.15,-116 136.38,-116"/>
<polygon fill="#63b8ff" stroke="#63b8ff" points="169.38,-119.5 179.38,-116 169.38,-112.5 169.38,-119.5"/>
</a>
</g>
</g>
<!-- Node5 -->
<g id="Node000005" class="node">
<title>Node5</title>
<g id="a_Node000005"><a xlink:href="class_chart_view_helper.html#abddc2d2e850ec4bf222a1fe9717ce112" target="_top" xlink:title="هم‌زمان فیلتر پایین‌گذر و بالاگذر">
<polygon fill="white" stroke="#666666" points="136,-82 0,-82 0,-50 136,-50 136,-82"/>
<text xml:space="preserve" text-anchor="start" x="8" y="-68.5" font-family="Helvetica,sans-Serif" font-size="10.00">ChartViewHelper::plotChart</text>
<text xml:space="preserve" text-anchor="middle" x="68" y="-56.5" font-family="Helvetica,sans-Serif" font-size="10.00">WithMin_and_MaxFilter</text>
</a>
</g>
</g>
<!-- Node4&#45;&gt;Node5 -->
<g id="edge4_Node000004_Node000005" class="edge">
<title>Node4&#45;&gt;Node5</title>
<g id="a_edge4_Node000004_Node000005"><a xlink:title=" ">
<path fill="none" stroke="#63b8ff" d="M160.32,-66C152.26,-66 144.19,-66 136.36,-66"/>
<polygon fill="#63b8ff" stroke="#63b8ff" points="160.19,-69.5 170.19,-66 160.19,-62.5 160.19,-69.5"/>
</a>
</g>
</g>
<!-- Node7 -->
<g id="Node000007" class="node">
<title>Node7</title>
<g id="a_Node000007"><a xlink:href="class_chart_view_helper.html#a0cc0a295341a58f0e634c3cc133b56af" target="_top" xlink:title="فیلترپایین گذر برای داه‌ها">
<polygon fill="white" stroke="#666666" points="136,-32 0,-32 0,0 136,0 136,-32"/>
<text xml:space="preserve" text-anchor="start" x="8" y="-18.5" font-family="Helvetica,sans-Serif" font-size="10.00">ChartViewHelper::plotChart</text>
<text xml:space="preserve" text-anchor="middle" x="68" y="-6.5" font-family="Helvetica,sans-Serif" font-size="10.00">WithMinFilter</text>
</a>
</g>
</g>
<!-- Node6&#45;&gt;Node7 -->
<g id="edge6_Node000006_Node000007" class="edge">
<title>Node6&#45;&gt;Node7</title>
<g id="a_edge6_Node000006_Node000007"><a xlink:title=" ">
<path fill="none" stroke="#63b8ff" d="M169.46,-16C158.4,-16 147.15,-16 136.38,-16"/>
<polygon fill="#63b8ff" stroke="#63b8ff" points="169.38,-19.5 179.38,-16 169.38,-12.5 169.38,-19.5"/>
</a>
</g>
</g>
</g>
</svg>
