<?xml version="1.0" encoding="UTF-8" standalone="no"?>
<!DOCTYPE svg PUBLIC "-//W3C//DTD SVG 1.1//EN"
 "http://www.w3.org/Graphics/SVG/1.1/DTD/svg11.dtd">
<!-- Generated by graphviz version 13.0.1 (20250615.1724)
 -->
<!-- Title: ChartViewHelper::setupChartAppearance Pages: 1 -->
<svg width="326pt" height="178pt"
 viewBox="0.00 0.00 326.00 178.00" xmlns="http://www.w3.org/2000/svg" xmlns:xlink="http://www.w3.org/1999/xlink">
<g id="graph0" class="graph" transform="scale(1 1) rotate(0) translate(4 174)">
<title>ChartViewHelper::setupChartAppearance</title>
<!-- Node1 -->
<g id="Node000001" class="node">
<title>Node1</title>
<g id="a_Node000001"><a xlink:title="تنظیم ظاهر و ویژگی‌های پایه نمودار">
<polygon fill="#999999" stroke="#666666" points="317.75,-107 173.5,-107 173.5,-75 317.75,-75 317.75,-107"/>
<text xml:space="preserve" text-anchor="start" x="181.5" y="-93.5" font-family="Helvetica,sans-Serif" font-size="10.00">ChartViewHelper::setupChart</text>
<text xml:space="preserve" text-anchor="middle" x="245.62" y="-81.5" font-family="Helvetica,sans-Serif" font-size="10.00">Appearance</text>
</a>
</g>
</g>
<!-- Node2 -->
<g id="Node000002" class="node">
<title>Node2</title>
<g id="a_Node000002"><a xlink:href="class_chart_view_helper.html#abd4eb32bfab5d868461c45557989322e" target="_top" xlink:title="نمایش داده‌ها ورودی">
<polygon fill="white" stroke="#666666" points="137.5,-170 0,-170 0,-150 137.5,-150 137.5,-170"/>
<text xml:space="preserve" text-anchor="middle" x="68.75" y="-156.5" font-family="Helvetica,sans-Serif" font-size="10.00">ChartViewHelper::PlotChart</text>
</a>
</g>
</g>
<!-- Node1&#45;&gt;Node2 -->
<g id="edge1_Node000001_Node000002" class="edge">
<title>Node1&#45;&gt;Node2</title>
<g id="a_edge1_Node000001_Node000002"><a xlink:title=" ">
<path fill="none" stroke="#63b8ff" d="M202.78,-112.47C183.26,-121.98 159.52,-132.84 137.5,-141 129.14,-144.1 120.04,-146.98 111.3,-149.51"/>
<polygon fill="#63b8ff" stroke="#63b8ff" points="204.09,-115.73 211.51,-108.17 200.99,-109.45 204.09,-115.73"/>
</a>
</g>
</g>
<!-- Node3 -->
<g id="Node000003" class="node">
<title>Node3</title>
<g id="a_Node000003"><a xlink:href="class_chart_view_helper.html#a7de649321e8d724b27a635423ea017b6" target="_top" xlink:title="فیلتربالا گذر برای داه‌ها">
<polygon fill="white" stroke="#666666" points="136.75,-132 0.75,-132 0.75,-100 136.75,-100 136.75,-132"/>
<text xml:space="preserve" text-anchor="start" x="8.75" y="-118.5" font-family="Helvetica,sans-Serif" font-size="10.00">ChartViewHelper::plotChart</text>
<text xml:space="preserve" text-anchor="middle" x="68.75" y="-106.5" font-family="Helvetica,sans-Serif" font-size="10.00">WithMaxFilter</text>
</a>
</g>
</g>
<!-- Node1&#45;&gt;Node3 -->
<g id="edge2_Node000001_Node000003" class="edge">
<title>Node1&#45;&gt;Node3</title>
<g id="a_edge2_Node000001_Node000003"><a xlink:title=" ">
<path fill="none" stroke="#63b8ff" d="M162,-102.81C153.7,-104 145.35,-105.19 137.24,-106.35"/>
<polygon fill="#63b8ff" stroke="#63b8ff" points="162.34,-106.3 171.75,-101.42 161.35,-99.37 162.34,-106.3"/>
</a>
</g>
</g>
<!-- Node4 -->
<g id="Node000004" class="node">
<title>Node4</title>
<g id="a_Node000004"><a xlink:href="class_chart_view_helper.html#abddc2d2e850ec4bf222a1fe9717ce112" target="_top" xlink:title="هم‌زمان فیلتر پایین‌گذر و بالاگذر">
<polygon fill="white" stroke="#666666" points="136.75,-82 0.75,-82 0.75,-50 136.75,-50 136.75,-82"/>
<text xml:space="preserve" text-anchor="start" x="8.75" y="-68.5" font-family="Helvetica,sans-Serif" font-size="10.00">ChartViewHelper::plotChart</text>
<text xml:space="preserve" text-anchor="middle" x="68.75" y="-56.5" font-family="Helvetica,sans-Serif" font-size="10.00">WithMin_and_MaxFilter</text>
</a>
</g>
</g>
<!-- Node1&#45;&gt;Node4 -->
<g id="edge3_Node000001_Node000004" class="edge">
<title>Node1&#45;&gt;Node4</title>
<g id="a_edge3_Node000001_Node000004"><a xlink:title=" ">
<path fill="none" stroke="#63b8ff" d="M162,-79.19C153.7,-78 145.35,-76.81 137.24,-75.65"/>
<polygon fill="#63b8ff" stroke="#63b8ff" points="161.35,-82.63 171.75,-80.58 162.34,-75.7 161.35,-82.63"/>
</a>
</g>
</g>
<!-- Node5 -->
<g id="Node000005" class="node">
<title>Node5</title>
<g id="a_Node000005"><a xlink:href="class_chart_view_helper.html#a0cc0a295341a58f0e634c3cc133b56af" target="_top" xlink:title="فیلترپایین گذر برای داه‌ها">
<polygon fill="white" stroke="#666666" points="136.75,-32 0.75,-32 0.75,0 136.75,0 136.75,-32"/>
<text xml:space="preserve" text-anchor="start" x="8.75" y="-18.5" font-family="Helvetica,sans-Serif" font-size="10.00">ChartViewHelper::plotChart</text>
<text xml:space="preserve" text-anchor="middle" x="68.75" y="-6.5" font-family="Helvetica,sans-Serif" font-size="10.00">WithMinFilter</text>
</a>
</g>
</g>
<!-- Node1&#45;&gt;Node5 -->
<g id="edge4_Node000001_Node000005" class="edge">
<title>Node1&#45;&gt;Node5</title>
<g id="a_edge4_Node000001_Node000005"><a xlink:title=" ">
<path fill="none" stroke="#63b8ff" d="M200.89,-69.58C181.61,-60.4 158.6,-49.8 137.5,-41 130.56,-38.1 123.15,-35.19 115.87,-32.43"/>
<polygon fill="#63b8ff" stroke="#63b8ff" points="199.28,-72.69 209.81,-73.86 202.3,-66.38 199.28,-72.69"/>
</a>
</g>
</g>
</g>
</svg>
