<?xml version="1.0" encoding="UTF-8" standalone="no"?>
<!DOCTYPE svg PUBLIC "-//W3C//DTD SVG 1.1//EN"
 "http://www.w3.org/Graphics/SVG/1.1/DTD/svg11.dtd">
<!-- Generated by graphviz version 13.0.1 (20250615.1724)
 -->
<!-- Title: generateMessage::Run Pages: 1 -->
<svg width="298pt" height="90pt"
 viewBox="0.00 0.00 298.00 90.00" xmlns="http://www.w3.org/2000/svg" xmlns:xlink="http://www.w3.org/1999/xlink">
<g id="graph0" class="graph" transform="scale(1 1) rotate(0) translate(4 86)">
<title>generateMessage::Run</title>
<!-- Node1 -->
<g id="Node000001" class="node">
<title>Node1</title>
<g id="a_Node000001"><a xlink:title="ساخت پیام نهایی برای ارسال">
<polygon fill="#999999" stroke="#666666" points="117.25,-51 0,-51 0,-31 117.25,-31 117.25,-51"/>
<text xml:space="preserve" text-anchor="middle" x="58.62" y="-37.5" font-family="Helvetica,sans-Serif" font-size="10.00">generateMessage::Run</text>
</a>
</g>
</g>
<!-- Node2 -->
<g id="Node000002" class="node">
<title>Node2</title>
<g id="a_Node000002"><a xlink:href="classgenerate_message.html#aecbdf5608b97ff1be34002af69b839d6" target="_top" xlink:title="تولید پیام احراز هویت">
<polygon fill="white" stroke="#666666" points="290,-82 153.25,-82 153.25,-50 290,-50 290,-82"/>
<text xml:space="preserve" text-anchor="start" x="161.25" y="-68.5" font-family="Helvetica,sans-Serif" font-size="10.00">generateMessage::generate</text>
<text xml:space="preserve" text-anchor="middle" x="221.62" y="-56.5" font-family="Helvetica,sans-Serif" font-size="10.00">_Authentication</text>
</a>
</g>
</g>
<!-- Node1&#45;&gt;Node2 -->
<g id="edge1_Node000001_Node000002" class="edge">
<title>Node1&#45;&gt;Node2</title>
<g id="a_edge1_Node000001_Node000002"><a xlink:title=" ">
<path fill="none" stroke="#63b8ff" d="M117.75,-50.03C125.52,-51.23 133.6,-52.49 141.66,-53.74"/>
<polygon fill="#63b8ff" stroke="#63b8ff" points="141.09,-57.19 151.51,-55.27 142.16,-50.27 141.09,-57.19"/>
</a>
</g>
</g>
<!-- Node3 -->
<g id="Node000003" class="node">
<title>Node3</title>
<g id="a_Node000003"><a xlink:href="classgenerate_message.html#a8c39fc97ad4521c91e6aa3d824e60780" target="_top" xlink:title="تولید پیام دریافت اطلاعات">
<polygon fill="white" stroke="#666666" points="290,-32 153.25,-32 153.25,0 290,0 290,-32"/>
<text xml:space="preserve" text-anchor="start" x="161.25" y="-18.5" font-family="Helvetica,sans-Serif" font-size="10.00">generateMessage::generate</text>
<text xml:space="preserve" text-anchor="middle" x="221.62" y="-6.5" font-family="Helvetica,sans-Serif" font-size="10.00">_DefaultRequest</text>
</a>
</g>
</g>
<!-- Node1&#45;&gt;Node3 -->
<g id="edge2_Node000001_Node000003" class="edge">
<title>Node1&#45;&gt;Node3</title>
<g id="a_edge2_Node000001_Node000003"><a xlink:title=" ">
<path fill="none" stroke="#63b8ff" d="M117.75,-31.97C125.52,-30.77 133.6,-29.51 141.66,-28.26"/>
<polygon fill="#63b8ff" stroke="#63b8ff" points="142.16,-31.73 151.51,-26.73 141.09,-24.81 142.16,-31.73"/>
</a>
</g>
</g>
</g>
</svg>
