<?xml version="1.0" encoding="UTF-8" standalone="no"?>
<!DOCTYPE svg PUBLIC "-//W3C//DTD SVG 1.1//EN"
 "http://www.w3.org/Graphics/SVG/1.1/DTD/svg11.dtd">
<!-- Generated by graphviz version 13.0.1 (20250615.1724)
 -->
<!-- Title: ChartViewHelper::_plotChartWithMaxFilter_LineChar Pages: 1 -->
<svg width="348pt" height="78pt"
 viewBox="0.00 0.00 348.00 78.00" xmlns="http://www.w3.org/2000/svg" xmlns:xlink="http://www.w3.org/1999/xlink">
<g id="graph0" class="graph" transform="scale(1 1) rotate(0) translate(4 74)">
<title>ChartViewHelper::_plotChartWithMaxFilter_LineChar</title>
<!-- Node1 -->
<g id="Node000001" class="node">
<title>Node1</title>
<g id="a_Node000001"><a xlink:title="فیلتر بالا گذر برای حالت پیوسته">
<polygon fill="#999999" stroke="#666666" points="141.25,-48 0,-48 0,-16 141.25,-16 141.25,-48"/>
<text xml:space="preserve" text-anchor="start" x="8" y="-34.5" font-family="Helvetica,sans-Serif" font-size="10.00">ChartViewHelper::_plotChart</text>
<text xml:space="preserve" text-anchor="middle" x="70.62" y="-22.5" font-family="Helvetica,sans-Serif" font-size="10.00">WithMaxFilter_LineChar</text>
</a>
</g>
</g>
<!-- Node2 -->
<g id="Node000002" class="node">
<title>Node2</title>
<g id="a_Node000002"><a xlink:href="class_chart_view_helper.html#a44ba1265fed2d71ca4e61c3b4f56f655" target="_top" xlink:title="ساخت سری‌های کران بالا و کران پایین برای حساب کردن مساحت فیلترشده">
<polygon fill="white" stroke="#666666" points="339.5,-70 177.25,-70 177.25,-38 339.5,-38 339.5,-70"/>
<text xml:space="preserve" text-anchor="start" x="185.25" y="-56.5" font-family="Helvetica,sans-Serif" font-size="10.00">ChartViewHelper::appendMasked</text>
<text xml:space="preserve" text-anchor="middle" x="258.38" y="-44.5" font-family="Helvetica,sans-Serif" font-size="10.00">SeriesByUpperBound</text>
</a>
</g>
</g>
<!-- Node1&#45;&gt;Node2 -->
<g id="edge1_Node000001_Node000002" class="edge">
<title>Node1&#45;&gt;Node2</title>
<g id="a_edge1_Node000001_Node000002"><a xlink:title=" ">
<path fill="none" stroke="#63b8ff" d="M141.58,-40.29C149.41,-41.21 157.47,-42.17 165.52,-43.12"/>
<polygon fill="#63b8ff" stroke="#63b8ff" points="165.03,-46.59 175.37,-44.29 165.85,-39.64 165.03,-46.59"/>
</a>
</g>
</g>
<!-- Node3 -->
<g id="Node000003" class="node">
<title>Node3</title>
<g id="a_Node000003"><a xlink:href="class_chart_view_helper.html#a2233b809143957aebc5592a05b79a754" target="_top" xlink:title="محاسبه محل تقاطع">
<polygon fill="white" stroke="#666666" points="317.75,-20 199,-20 199,0 317.75,0 317.75,-20"/>
<text xml:space="preserve" text-anchor="middle" x="258.38" y="-6.5" font-family="Helvetica,sans-Serif" font-size="10.00">ChartViewHelper::findX</text>
</a>
</g>
</g>
<!-- Node1&#45;&gt;Node3 -->
<g id="edge2_Node000001_Node000003" class="edge">
<title>Node1&#45;&gt;Node3</title>
<g id="a_edge2_Node000001_Node000003"><a xlink:title=" ">
<path fill="none" stroke="#63b8ff" d="M141.58,-23.71C156.58,-21.94 172.43,-20.06 187.43,-18.28"/>
<polygon fill="#63b8ff" stroke="#63b8ff" points="187.68,-21.78 197.2,-17.13 186.85,-14.83 187.68,-21.78"/>
</a>
</g>
</g>
</g>
</svg>
